<svg width="95" height="84" viewBox="0 0 95 84" fill="none" xmlns="http://www.w3.org/2000/svg">
<g clip-path="url(#clip0_275_71)">
<path fill-rule="evenodd" clip-rule="evenodd" d="M35.3906 66.0721C33.9339 66.0721 32.7517 64.8985 32.7517 63.4491C32.7517 61.9997 33.9313 60.8208 35.388 60.8208L41.6527 60.8156C42.9036 60.8156 43.9169 59.8073 43.9169 58.5654V53.0777C43.9169 51.8384 42.9036 50.8275 41.6554 50.8275L35.3933 50.8328C33.9366 50.8328 32.7517 49.6591 32.7517 48.2097C32.7517 46.7604 33.9313 45.5814 35.388 45.5814L41.6527 45.5762C45.8116 45.5762 49.1947 48.9423 49.1947 53.0777V58.5654C49.1947 62.7008 45.8116 66.0669 41.6554 66.0669L35.3906 66.0721Z" fill="white"/>
<path fill-rule="evenodd" clip-rule="evenodd" d="M5.27781 50.8275V70.8482C5.27781 74.8839 8.5738 78.1634 12.6272 78.1634H25.4021C29.4555 78.1634 32.7514 74.8839 32.7514 70.8482V50.8275H5.27781ZM25.4021 83.4147H12.6272C5.66309 83.4147 0 77.7774 0 70.8482V48.2018C0 46.7525 1.17959 45.5762 2.6389 45.5762H35.3904C36.8497 45.5762 38.0293 46.7525 38.0293 48.2018V70.8482C38.0293 77.7774 32.3662 83.4147 25.4021 83.4147Z" fill="white"/>
<path fill-rule="evenodd" clip-rule="evenodd" d="M51.0748 38.2271L72.0646 58.8623L84.2089 46.6765L82.2904 44.7887L71.2598 44.8359H71.2518C70.5552 44.8359 69.8875 44.5629 69.3914 44.0745L32.1433 7.27836C30.8212 5.97077 29.0689 5.25134 27.2059 5.25134H27.1768C25.3059 5.25922 23.5484 5.99178 22.2289 7.31511L20.9939 8.55706L51.0748 38.2271ZM72.0831 65.198C71.4128 65.198 70.7425 64.9459 70.2279 64.4418L47.3645 41.9635L47.3618 41.9582L15.4021 10.4397C14.9059 9.94604 14.6236 9.28174 14.6236 8.58331C14.6209 7.88751 14.8954 7.21796 15.3889 6.72434L18.4817 3.61817C20.7933 1.29971 23.8729 0.0131283 27.1584 0H27.2059C30.4728 0 33.5445 1.26295 35.8641 3.55516L72.3338 39.5793L83.3618 39.5321H83.3723C84.069 39.5321 84.7366 39.8052 85.2301 40.2935L89.7981 44.7966C90.2942 45.2849 90.5765 45.9518 90.5792 46.6503C90.5818 47.3461 90.3047 48.0156 89.8139 48.5092L73.9567 64.4234C73.4421 64.9407 72.7639 65.198 72.0831 65.198Z" fill="white"/>
<path fill-rule="evenodd" clip-rule="evenodd" d="M59.7824 32.7311L58.3706 27.6715L87.2745 19.6894L82.2844 14.7689L45.7039 19.2956L45.0547 14.0863L82.9071 9.39944C83.6988 9.29704 84.5142 9.57273 85.0895 10.1399L94.2201 19.1459C94.8878 19.805 95.1517 20.766 94.9142 21.6744C94.6793 22.5777 93.9747 23.2892 93.0669 23.5413L59.7824 32.7311Z" fill="white"/>
</g>
<defs>
<clipPath id="clip0_275_71">
<rect width="95" height="83.4146" fill="white"/>
</clipPath>
</defs>
</svg>
