<svg width="100" height="56" viewBox="0 0 100 56" fill="none" xmlns="http://www.w3.org/2000/svg">
<path fill-rule="evenodd" clip-rule="evenodd" d="M76.3159 39.4736C73.4132 39.4736 71.0527 41.8341 71.0527 44.7368C71.0527 47.6394 73.4132 49.9999 76.3159 49.9999C79.2185 49.9999 81.579 47.6394 81.579 44.7368C81.579 41.8341 79.2185 39.4736 76.3159 39.4736ZM76.3159 55.2631C70.5106 55.2631 65.7896 50.542 65.7896 44.7368C65.7896 38.9315 70.5106 34.2104 76.3159 34.2104C82.1211 34.2104 86.8422 38.9315 86.8422 44.7368C86.8422 50.542 82.1211 55.2631 76.3159 55.2631Z" fill="white"/>
<path fill-rule="evenodd" clip-rule="evenodd" d="M34.2102 47.3701H68.4207V42.1069H34.2102V47.3701Z" fill="white"/>
<path fill-rule="evenodd" clip-rule="evenodd" d="M23.6838 21.604H84.2102V16.3408H23.6838V21.604Z" fill="white"/>
<path fill-rule="evenodd" clip-rule="evenodd" d="M2.63417 31.5958L2.62891 26.3327L15.7868 26.3169L15.7921 31.5801L2.63417 31.5958Z" fill="white"/>
<path fill-rule="evenodd" clip-rule="evenodd" d="M97.3684 47.3763H84.2105V42.1132H94.7368V24.8184C94.7368 23.0447 93.2947 21.6053 91.5237 21.6053H84.2105C83.2 21.6053 82.2816 21.0263 81.8421 20.1184L74.6632 5.26316H40.5921L25.5789 20.8C25.0816 21.3158 24.3974 21.6053 23.6842 21.6053H8.47631C6.70526 21.6053 5.26316 23.0447 5.26316 24.8184V42.1053H18.4211V47.3684H2.63158C1.17632 47.3684 0 46.1895 0 44.7368V24.7711V24.7132C0.0552632 20.0868 3.83684 16.3421 8.47631 16.3421H22.5658L37.5789 0.802632C38.0763 0.289475 38.7605 0 39.4737 0H76.3158C77.3263 0 78.2447 0.576317 78.6842 1.48684L85.8632 16.3421H91.5237C96.2 16.3421 100 20.1421 100 24.8184V44.7447C100 46.1974 98.8237 47.3763 97.3684 47.3763Z" fill="white"/>
<path fill-rule="evenodd" clip-rule="evenodd" d="M26.3159 39.4736C23.4132 39.4736 21.0527 41.8341 21.0527 44.7368C21.0527 47.6394 23.4132 49.9999 26.3159 49.9999C29.2185 49.9999 31.579 47.6394 31.579 44.7368C31.579 41.8341 29.2185 39.4736 26.3159 39.4736ZM26.3159 55.2631C20.5106 55.2631 15.7896 50.542 15.7896 44.7368C15.7896 38.9315 20.5106 34.2104 26.3159 34.2104C32.1211 34.2104 36.8422 38.9315 36.8422 44.7368C36.8422 50.542 32.1211 55.2631 26.3159 55.2631Z" fill="white"/>
</svg>
