<svg width="50" height="80" viewBox="0 0 50 80" fill="none" xmlns="http://www.w3.org/2000/svg">
<path fill-rule="evenodd" clip-rule="evenodd" d="M41.6667 74.9979H45.8333V4.3375C43.2854 4.7625 40.9396 5.9625 39.0771 7.82708C36.7167 10.1875 35.4167 13.325 35.4167 16.6646V52.2417H39.5833C40.7354 52.2417 41.6667 53.1729 41.6667 54.325V74.9979ZM47.9167 79.1646H39.5833C38.4312 79.1646 37.5 78.2333 37.5 77.0812V56.4083H33.3333C32.1813 56.4083 31.25 55.4771 31.25 54.325V16.6646C31.25 12.2125 32.9833 8.02708 36.1313 4.88125C39.2792 1.73333 43.4625 0 47.9125 0H47.9167C49.0687 0 50 0.933333 50 2.08333V77.0812C50 78.2333 49.0687 79.1646 47.9167 79.1646Z" fill="white"/>
<path fill-rule="evenodd" clip-rule="evenodd" d="M16.6667 79.1646H8.33333C7.18125 79.1646 6.25 78.2333 6.25 77.0812V39.3167C2.65833 38.3917 0 35.125 0 31.25V0H4.16667V31.25C4.16667 33.5479 6.03542 35.4146 8.33333 35.4146C9.48542 35.4146 10.4167 36.3458 10.4167 37.4979V74.9979H14.5833V37.4979C14.5833 36.3458 15.5146 35.4146 16.6667 35.4146C18.9646 35.4146 20.8333 33.5479 20.8333 31.25V0H25V31.25C25 35.125 22.3417 38.3917 18.75 39.3167V77.0812C18.75 78.2333 17.8187 79.1646 16.6667 79.1646Z" fill="white"/>
<path fill-rule="evenodd" clip-rule="evenodd" d="M10.4165 29.1646H14.5832V0H10.4165V29.1646Z" fill="white"/>
</svg>
