<svg width="50" height="80" viewBox="0 0 50 80" fill="none" xmlns="http://www.w3.org/2000/svg">
<path fill-rule="evenodd" clip-rule="evenodd" d="M37.4991 29.1687H33.3325V8.33333C33.3325 6.03542 31.4637 4.16667 29.1658 4.16667H20.8325C18.5346 4.16667 16.6658 6.03542 16.6658 8.33333V29.1687H12.4991V8.33333C12.4991 3.7375 16.2366 0 20.8325 0H29.1658C33.7616 0 37.4991 3.7375 37.4991 8.33333V29.1687Z" fill="white"/>
<path fill-rule="evenodd" clip-rule="evenodd" d="M4.16667 75.0002H45.8333V18.7502H4.16667V75.0002ZM47.9167 79.1668H2.08333C0.93125 79.1668 0 78.2356 0 77.0835V16.6668C0 15.5147 0.93125 14.5835 2.08333 14.5835H47.9167C49.0667 14.5835 50 15.5147 50 16.6668V77.0835C50 78.2356 49.0667 79.1668 47.9167 79.1668Z" fill="white"/>
</svg>
