<svg width="22" height="22" viewBox="0 0 22 22" fill="none" xmlns="http://www.w3.org/2000/svg">
<g id="indent">
<g id="Vector">
<path fill-rule="evenodd" clip-rule="evenodd" d="M11 4.125C11.3797 4.125 11.6875 4.4328 11.6875 4.8125V14.1527L14.6389 11.2014C14.9073 10.9329 15.3427 10.9329 15.6111 11.2014C15.8796 11.4698 15.8796 11.9052 15.6111 12.1736L11.4861 16.2986C11.2177 16.5671 10.7823 16.5671 10.5139 16.2986L6.38886 12.1736C6.12038 11.9052 6.12038 11.4698 6.38886 11.2014C6.65735 10.9329 7.09265 10.9329 7.36114 11.2014L10.3125 14.1527V4.8125C10.3125 4.4328 10.6203 4.125 11 4.125Z" fill="black"/>
<path fill-rule="evenodd" clip-rule="evenodd" d="M16.5 17.1875C16.5 17.5672 16.1922 17.875 15.8125 17.875H6.1875C5.8078 17.875 5.5 17.5672 5.5 17.1875C5.5 16.8078 5.8078 16.5 6.1875 16.5H15.8125C16.1922 16.5 16.5 16.8078 16.5 17.1875Z" fill="black"/>
</g>
</g>
</svg>
