<svg width="18" height="18" viewBox="0 0 18 18" fill="none" xmlns="http://www.w3.org/2000/svg">
<g id="volume-up">
<g id="Union">
<path d="M12.9775 15.7617C14.7079 14.0312 15.7783 11.6406 15.7783 8.99999C15.7783 6.35938 14.7079 3.96875 12.9775 2.23828L12.182 3.03378C13.7089 4.56066 14.6533 6.67004 14.6533 8.99999C14.6533 11.3299 13.7089 13.4393 12.182 14.9662L12.9775 15.7617Z" fill="black"/>
<path d="M11.3865 14.1707C12.7098 12.8474 13.5283 11.0193 13.5283 8.99999C13.5283 6.9807 12.7098 5.15257 11.3865 3.82927L10.591 4.62477C11.7107 5.74448 12.4033 7.29136 12.4033 8.99999C12.4033 10.7086 11.7107 12.2555 10.591 13.3752L11.3865 14.1707Z" fill="black"/>
<path d="M11.2783 8.99999C11.2783 10.398 10.7116 11.6636 9.7955 12.5797L9 11.7842C9.71255 11.0717 10.1533 10.0873 10.1533 8.99999C10.1533 7.91268 9.71255 6.9283 9 6.21576L9.7955 5.42026C10.7116 6.33639 11.2783 7.60202 11.2783 8.99999Z" fill="black"/>
<path d="M7.875 4.49996C7.875 4.28373 7.75106 4.08664 7.55617 3.99298C7.36128 3.89931 7.12995 3.92564 6.96111 4.06072L4.30269 6.18746H1.6875C1.37684 6.18746 1.125 6.4393 1.125 6.74996V11.25C1.125 11.5606 1.37684 11.8125 1.6875 11.8125H4.30269L6.96111 13.9392C7.12995 14.0743 7.36128 14.1006 7.55617 14.0069C7.75106 13.9133 7.875 13.7162 7.875 13.5V4.49996ZM4.85139 7.1892L6.75 5.67031V12.3296L4.85139 10.8107C4.75165 10.7309 4.62773 10.6875 4.5 10.6875H2.25V7.31246H4.5C4.62773 7.31246 4.75165 7.26899 4.85139 7.1892Z" fill="black"/>
</g>
</g>
</svg>
